<svg xmlns="http://www.w3.org/2000/svg" width="104.573" height="102.161" viewBox="0 0 104.573 102.161"><path d="M213,317.59c-.125-.228-.217-.373-.289-.529a7.41,7.41,0,0,0-6.978-4.574c-2.532-.083-5.067-.064-7.6-.008a7.576,7.576,0,0,0-.6,15.136q4.215.092,8.436.011a7.311,7.311,0,0,0,6.594-4.168c.145-.27.267-.551.409-.846A8.128,8.128,0,0,0,213,317.59m-7.267,5.039q-3.856.042-7.707,0a2.543,2.543,0,0,1-2.39-1.706,2.585,2.585,0,0,1,.743-2.754,2.483,2.483,0,0,1,1.728-.59c1.285.011,2.568,0,3.853,0,1.249,0,2.5-.014,3.748.006a2.43,2.43,0,0,1,2.6,2.493,2.485,2.485,0,0,1-2.576,2.549" transform="translate(-137.461 -225.503)" fill="#139bcb"/><path d="M17.818,163.361c0-.554-.053-1.107-.081-1.664a6.9,6.9,0,0,0-5.164-6.093c-.334-.083-.662-.178-1.043-.281a7.737,7.737,0,0,0-5.156.893.806.806,0,0,1-.106.1c-.089.053-.184.1-.275.147a10.738,10.738,0,0,0-5.985,9.969q-.021,5.73.006,11.458a16.607,16.607,0,0,0,.167,2.067,10.732,10.732,0,0,0,10.495,9.051,6.858,6.858,0,0,0,6.808-5.064,11.348,11.348,0,0,0,.323-2.88c.028-5.9.017-11.805.011-17.707m-5.086,5.57v12.289a6.372,6.372,0,0,0,0,.729,2.007,2.007,0,0,1-2.028,2.031,5.822,5.822,0,0,1-5.5-4.41,7.219,7.219,0,0,1-.181-1.441c-.014-3.959-.033-7.916,0-11.872a5.7,5.7,0,0,1,3.826-5.526,8.926,8.926,0,0,1,1.719-.345,2.007,2.007,0,0,1,2.179,2.087c-.061,2.151-.017,4.3-.017,6.458" transform="translate(0 -112.024)" fill="#f5c151"/><path d="M120.32,129.923q-4.159,4.236-8.319,8.47c-.341.346-.685.691-1.053,1.008a4.892,4.892,0,0,1-5.51.9,5.019,5.019,0,0,1-3.137-4.647c-.073-1.629-.018-3.263-.019-4.9,0-.207,0-.414,0-.687-.63-.1-1.233-.2-1.838-.281a10.517,10.517,0,0,1-8.817-9.1,22.059,22.059,0,0,1-.144-2.282q-.017-10.1-.005-20.209a10.812,10.812,0,0,1,2.693-7.455,10.386,10.386,0,0,1,8-3.611q16.143-.053,32.286,0a10.525,10.525,0,0,1,10.358,8.3,11.408,11.408,0,0,1,.3,2.575q.035,10.521.006,21.042a10.669,10.669,0,0,1-6.782,10.165,11.2,11.2,0,0,1-4.165.755q-6.249-.009-12.5,0h-1.142l-.214-.05m-13.005,5.627.264.1c.268-.26.538-.517.8-.78,2.955-2.934,5.927-5.851,8.854-8.814a3.42,3.42,0,0,1,2.775-1.131c.865.047,1.734.009,2.6.009q5.726,0,11.451,0a5.7,5.7,0,0,0,5.186-2.7,6.105,6.105,0,0,0,.79-3.389q-.02-10.308-.007-20.616c0-.277-.009-.555-.019-.832a5.232,5.232,0,0,0-1.933-3.883,5.7,5.7,0,0,0-3.947-1.3q-15.823.03-31.646.011c-.208,0-.417,0-.625.008a5.28,5.28,0,0,0-4.182,2.176,5.721,5.721,0,0,0-1.113,3.7c.018,6.213.007,12.425.009,18.638,0,.972-.013,1.944.02,2.915a5.265,5.265,0,0,0,2.3,4.219,5.923,5.923,0,0,0,3.524,1.056c.832.017,1.667-.02,2.5.027a2.373,2.373,0,0,1,2.376,2.394c.021.311.016.624.017.937q0,3.124,0,6.247v1.009" transform="translate(-66.023 -62.871)" fill="#139bcb"/><path d="M181.965,155.968a3.722,3.722,0,1,1-3.72-3.724,3.8,3.8,0,0,1,3.72,3.724" transform="translate(-125.964 -109.885)" fill="#139bcb"/><path d="M131.016,155.95a3.706,3.706,0,0,1,3.694-3.707,3.722,3.722,0,0,1-.026,7.443,3.711,3.711,0,0,1-3.669-3.736" transform="translate(-94.563 -109.884)" fill="#139bcb"/><path d="M225.578,155.975a3.713,3.713,0,0,1-3.7,3.711,3.722,3.722,0,0,1,.024-7.443,3.711,3.711,0,0,1,3.672,3.733" transform="translate(-157.472 -109.884)" fill="#139bcb"/><path d="M114.692,44.209c-1.853-1.132-5.211-.888-5.211-.888C108.769,24.833,93.833,7.291,72.941,5.24A40.889,40.889,0,0,0,28.068,43.3a7.737,7.737,0,0,0-5.156.893C23.741,30.3,29.4,18.765,40.3,10A44.485,44.485,0,0,1,71.692.087a45.9,45.9,0,0,1,43,44.122" transform="translate(-16.537 0)" fill="#1a1818"/><path d="M329.642,166.414a10.621,10.621,0,0,0-5.528-9.407c-.25-.15-.512-.289-.748-.415q-.058-.029-.108-.058c-1.853-1.132-5.211-.888-5.211-.888-.295.081-.593.164-.89.248a6.759,6.759,0,0,0-5.047,5.019,8.929,8.929,0,0,0-.223,2.268q-.025,9.269-.006,18.539c0,.384.019.765.036,1.146a6.874,6.874,0,0,0,5.183,6.182c.362.089.721.189,1.13.295a10.988,10.988,0,0,0,5.03-.921l.529-.3a10.74,10.74,0,0,0,5.865-9.938c.008-3.923.05-7.849-.011-11.769m-5.005,11.8a5.771,5.771,0,0,1-3.275,5.49,4.974,4.974,0,0,1-2.507.562,1.859,1.859,0,0,1-1.914-1.9c-.033-1-.014-2.012-.014-3.019V163.409c0-.278-.008-.556.008-.832a1.89,1.89,0,0,1,1.934-1.895,5.741,5.741,0,0,1,5.584,4.424,8.438,8.438,0,0,1,.181,1.65c.017,3.82.025,7.637,0,11.458" transform="translate(-225.102 -112.324)" fill="#f5c151"/><path d="M293.994,280.134a15.057,15.057,0,0,1-11.683,13.953,18.383,18.383,0,0,1-3.6.412c-2.423.061-4.852.017-7.326.017a8.128,8.128,0,0,0,.031-5.022c.278,0,.584.006.893,0,2.6-.045,5.211.031,7.8-.161a9.885,9.885,0,0,0,8.681-8.035,13.167,13.167,0,0,0,.2-2.167c.031-1.558.011-3.116.011-4.7a10.988,10.988,0,0,0,5.03-.921c0,.326,0,.665,0,1.007-.008,1.872.025,3.751-.036,5.623" transform="translate(-195.875 -197.407)" fill="#1a1818"/></svg>