<svg xmlns="http://www.w3.org/2000/svg" width="104.573" height="100.254" viewBox="0 0 104.573 100.254"><g transform="translate(0 0)"><g transform="translate(0 0)"><path d="M56.608,81.695c-.243-.856-.483-1.693-.717-2.531-.137-.49-.3-.976-.389-1.475a2.032,2.032,0,0,1,3.778-1.322,4.917,4.917,0,0,1,.355.949c.436,1.46.862,2.923,1.3,4.429.652.063,1.291.1,1.921.19a5.512,5.512,0,0,1,2.072,10.217c-.252.161-.517.3-.82.479l7.066,24.214a66.51,66.51,0,0,0,9,.1l2.027-2.574c.274-.347.532-.708.824-1.039a2.05,2.05,0,0,1,2.834-.363,2.02,2.02,0,0,1,.427,2.823c-1.151,1.559-2.36,3.077-3.571,4.591a2.279,2.279,0,0,1-1.917.769c-2.927-.01-5.854,0-8.781,0h-7.7c-1.375,1.3-2.762,2.6-4.141,3.909-3.011,2.859-6.031,5.709-9.017,8.593a3.309,3.309,0,0,1-2.463.987c-9.53-.018-19.06,0-28.591-.022a3.49,3.49,0,0,0-2,.574q-7.205,4.631-14.441,9.216a6.29,6.29,0,0,1-.793.458,1.974,1.974,0,0,1-2.517-.713,2.029,2.029,0,0,1,.329-2.683A5.125,5.125,0,0,1,1.356,141Q9.182,136.008,17,131.013a3.007,3.007,0,0,1,1.724-.518c.609.01,1.218,0,1.908,0a4.813,4.813,0,0,0-.107-.642,7.282,7.282,0,0,1,.4-5.639c1.414-2.9,2.795-5.817,4.238-8.7a6.7,6.7,0,0,0,.723-2.62q.233-3.717.466-7.434c.018-.3,0-.6,0-.84-1.673-.278-3.271-.549-4.871-.81a5.392,5.392,0,0,1-4.37-6.143q.9-5.219,1.791-10.439c.3-1.739.631-3.474.9-5.217a3.3,3.3,0,0,1,1.261-2.56,7.612,7.612,0,0,1,.6-5.855,6.987,6.987,0,0,1,3.546-3.087c2.512-1.02,6.455-.692,8.92,3.5l1.44-.849a9.947,9.947,0,1,1,12.577,1.466,4.093,4.093,0,0,0,.353.442c2.186,2.1,4.385,4.181,6.559,6.29a1.288,1.288,0,0,0,1.532.339M43.915,91.122c-.925-.8-1.8-1.557-2.667-2.315a7.14,7.14,0,0,1-.671-.625,1.968,1.968,0,0,1-.313-2.271A1.991,1.991,0,0,1,42.271,84.8a2.2,2.2,0,0,1,1.356.628c1.105.957,2.227,1.895,3.319,2.867a2.046,2.046,0,0,0,1.469.547c4.319-.019,8.637-.009,12.956-.013a5.441,5.441,0,0,0,.913-.065,1.378,1.378,0,0,0-.1-2.75c-.271-.023-.544-.012-.816-.012-1.972,0-3.945-.021-5.917.008a3.253,3.253,0,0,1-2.47-.97c-2.535-2.466-5.132-4.867-7.662-7.338a5.507,5.507,0,0,0-3.94-1.616,11.807,11.807,0,0,0-1.522.117c-3.386.395-5.231,2.227-5.757,5.571-.537,3.417-1.155,6.822-1.735,10.232-.225,1.323-.446,2.646-.67,3.981,4.128.023,9.669-1.95,12.224-4.868M40.5,110.858c-.057.286-.106.446-.119.61-.122,1.558-.276,3.114-.341,4.674a6.212,6.212,0,0,1-.633,2.54c-1.748,3.563-3.471,7.138-5.2,10.71-.158.327-.3.663-.466,1.043a4.726,4.726,0,0,0,.486.058c4.522,0,9.044,0,13.566.012a1.687,1.687,0,0,0,1.26-.532c1.812-1.746,3.642-3.472,5.463-5.207.194-.185.369-.39.59-.625a7.87,7.87,0,0,1-3-2.294c-1.618-2.057-3.323-4.05-4.845-6.175A10.278,10.278,0,0,0,42.28,111.7a18.813,18.813,0,0,1-1.779-.843M43.7,96.67c-.2.09-.326.132-.437.2a25.032,25.032,0,0,1-10.919,3.294c-.465.035-.927.118-1.409.182-.056.39-.1.689-.142.987a3.229,3.229,0,0,0,2.873,3.934c1.672.289,3.354.525,5.02.845a11.112,11.112,0,0,1,3.051.75c1.757.888,3.554,1.7,5.306,2.592a4.3,4.3,0,0,1,1.336,1.059c1.4,1.707,2.752,3.46,4.126,5.192,1.015,1.279,2,2.58,3.068,3.818a2.839,2.839,0,0,0,3.433.729,2.916,2.916,0,0,0,1.7-2.879,3.318,3.318,0,0,0-.87-2.016c-2.179-2.743-4.417-5.442-6.509-8.25a9.586,9.586,0,0,0-4.15-3.283c-1.6-.658-3.126-1.486-4.686-2.238a1.989,1.989,0,0,1-1.213-2.146c.032-.338.085-.674.136-1.009.086-.563.179-1.124.281-1.758m23.194,20.214L59.927,93.012H48.534l-.944,5.46c.324.167.616.327.915.472,1.617.785,3.229,1.582,4.859,2.341a4.224,4.224,0,0,1,1.578,1.246q4.038,5.124,8.1,10.232a7.646,7.646,0,0,1,1.776,3.932c.01.089.1.168.2.318.439,0,.911.007,1.382,0a2.813,2.813,0,0,0,.494-.124M30.321,108.6a2.274,2.274,0,0,0-.075.362c-.085,1.46-.175,2.92-.241,4.38a8.257,8.257,0,0,1-.847,3.425c-1.482,2.941-2.894,5.918-4.331,8.882a8.164,8.164,0,0,0-.413.931,2.964,2.964,0,0,0,5.493,2.2c1.958-3.956,3.87-7.936,5.786-11.913a2.91,2.91,0,0,0,.239-.981c.09-.982.152-1.966.211-2.951s.1-1.955.156-3.009c-1.028-.185-2.03-.334-3.017-.553s-1.954-.506-2.96-.772m12.4-48.133a5.717,5.717,0,0,0-5.744,5.764,5.8,5.8,0,0,0,11.6,0,5.718,5.718,0,0,0-5.856-5.764M23.745,83.745c-.1.5-.193.894-.262,1.29q-.879,5.008-1.751,10.018c-.185,1.069-.4,2.136-.5,3.214-.094.942.221,1.3,1.134,1.5.929.2,1.863.367,2.8.539,1.117.206,1.626-.173,1.826-1.332.526-3.04,1.06-6.078,1.58-9.119.285-1.663.549-3.329.837-5.084l-5.655-1.021M27.835,80.2a2.864,2.864,0,0,0,2.842-3.053,2.912,2.912,0,0,0-2.938-2.976A2.873,2.873,0,0,0,24.9,77.227,2.914,2.914,0,0,0,27.835,80.2" transform="translate(0 -44.802)" fill="#474747"/><g transform="translate(0.012)"><path d="M38.767,38.868a7.349,7.349,0,0,1-7.436,7.462,7.465,7.465,0,1,1,.005-14.93,7.344,7.344,0,0,1,7.431,7.467M31.3,42.182a3.265,3.265,0,0,0,3.358-3.339,3.337,3.337,0,0,0-3.4-3.317,3.387,3.387,0,0,0-3.312,3.308A3.314,3.314,0,0,0,31.3,42.182" transform="translate(-18.966 -24.975)" fill="#f5c151"/><path d="M54.3,2.831a6.777,6.777,0,0,1-.458,1.477,1.826,1.826,0,0,1-1.888.937,1.929,1.929,0,0,1-1.728-1.368,4.065,4.065,0,0,1-.038-2.4A1.982,1.982,0,0,1,52.237,0a1.961,1.961,0,0,1,1.878,1.556c.088.358.11.732.187,1.274" transform="translate(-39.803 0)" fill="#f5c151"/><path d="M49.838,113.463a7.329,7.329,0,0,1,.442-1.494,1.993,1.993,0,0,1,3.633.453,6.6,6.6,0,0,1,.047,2.2,1.88,1.88,0,0,1-1.915,1.617,1.963,1.963,0,0,1-2.012-1.518,12.345,12.345,0,0,1-.2-1.258" transform="translate(-39.652 -88.27)" fill="#f5c151"/><path d="M.073,30.855a1.981,1.981,0,0,1,2.767-1.68,6.9,6.9,0,0,1,1.49.852,1.967,1.967,0,0,1,.5,2.63,1.992,1.992,0,0,1-2.544.842,8.267,8.267,0,0,1-1.4-.8,1.976,1.976,0,0,1-.81-1.842" transform="translate(-0.069 -23.08)" fill="#f5c151"/><path d="M101.12,31.08c.216,1.486-2.689,3.144-3.928,2.409a2.071,2.071,0,0,1-.318-3.472,6.6,6.6,0,0,1,1.495-.844,2.023,2.023,0,0,1,2.751,1.907" transform="translate(-76.424 -23.089)" fill="#f5c151"/><path d="M.062,87.4c0-.257.005-.325,0-.392-.121-1.32,2.684-3.018,4.013-2.17a2,2,0,0,1,.477,3.135,5.494,5.494,0,0,1-2.093,1.18A1.91,1.91,0,0,1,.062,87.4" transform="translate(-0.058 -67.297)" fill="#f5c151"/><path d="M98.142,84.556a3.794,3.794,0,0,1,2.534,1.574,1.837,1.837,0,0,1-.1,2.2,1.743,1.743,0,0,1-2.045.777,6.71,6.71,0,0,1-2.084-1.2,1.725,1.725,0,0,1-.356-2.155,2.037,2.037,0,0,1,2.055-1.2" transform="translate(-76.262 -67.253)" fill="#f5c151"/></g><g transform="translate(69.928 7.754)"><path d="M463.03,253.9a2.655,2.655,0,0,1-2.785,1.43c-1.115-.069-2.239-.015-3.391-.015-.785,1-1.563,1.979-2.333,2.967a2.2,2.2,0,0,1-1.3.923,2.038,2.038,0,0,1-2.155-3.17c.387-.558.826-1.078,1.243-1.615.542-.7,1.1-1.381,1.621-2.1a2.5,2.5,0,0,1,2.256-1.126c1.324.043,2.654.067,3.975-.006a2.944,2.944,0,0,1,2.866,1.279Z" transform="translate(-428.385 -207.535)" fill="#139bcb"/><path d="M358.433,41.351c1.231-.142,2.3-.348,3.371-.372a7.706,7.706,0,0,1,7.588,7.015,7.836,7.836,0,0,1-6.1,8.463,8.353,8.353,0,0,1-1.612.2c-3.569.017-7.141.094-10.707-.016a9.007,9.007,0,0,1-8.332-5.41,9.324,9.324,0,0,1,6.667-13.142,9.177,9.177,0,0,1,8.567,2.668c.122.118.231.249.347.373l.208.221m-2.192,11.212c1.563,0,3.127.008,4.69-.005a7.15,7.15,0,0,0,1.314-.117,3.718,3.718,0,0,0,1.475-6.689,3.619,3.619,0,0,0-4.118-.12c-.289.178-.552.4-.854.553a1.984,1.984,0,0,1-2.54-.613,7.141,7.141,0,0,1-.458-.791,5.255,5.255,0,1,0-8.765,5.731,5.444,5.444,0,0,0,4.463,2.048c1.6.011,3.195,0,4.792,0" transform="translate(-341.733 -37.894)" fill="#139bcb"/><path d="M430.313,302.2a2.037,2.037,0,1,1-4.071-.1,2.036,2.036,0,0,1,4.071.1" transform="translate(-408.949 -246.485)" fill="#139bcb"/></g></g></g></svg>