<svg xmlns="http://www.w3.org/2000/svg" width="100.247" height="100.254" viewBox="0 0 100.247 100.254"><g transform="translate(0 0)"><path d="M0,159.376c.326-1.181.679-2.355.973-3.544.749-3.032,1.471-6.07,2.206-9.105.038-.158.091-.313.142-.467a1.653,1.653,0,0,1,2.022-1.224,1.66,1.66,0,0,1,1.223,2.113c-.447,1.9-.923,3.793-1.385,5.69q-.519,2.128-1.037,4.266c.69-.036,12.268-4.339,13.69-5.082-.78-.835-1.586-1.638-2.326-2.5a25.608,25.608,0,0,1-6.1-13.21c-.286-1.964-.41-3.952-.59-5.931-.156-1.721-.3-3.443-.422-5.166a1.678,1.678,0,1,1,3.32-.468c.173,1.62.26,3.25.417,4.872a50.428,50.428,0,0,0,1.091,8.616,23.237,23.237,0,0,0,7.2,11.517c.342.3.685.6,1.091.958l19.364-7.325c-.432-.225-.708-.373-.988-.515a50.9,50.9,0,0,1-27.5-36.731,5.774,5.774,0,0,1-.106-1.07,1.662,1.662,0,0,1,1.4-1.648,1.633,1.633,0,0,1,1.791,1.05,9.419,9.419,0,0,1,.351,1.517,47.252,47.252,0,0,0,28.758,35.286c.3.122.6.23.939.355l11.725-4.45c-.465-.179-.779-.3-1.1-.422a48.27,48.27,0,0,1-9.454-5.071,79.428,79.428,0,0,1-15.362-13.272,80.886,80.886,0,0,1-9.509-12.4,36.648,36.648,0,0,1-4.452-9.841A12.731,12.731,0,0,1,17,90.565a6.328,6.328,0,0,1,4.98-5.173,6.931,6.931,0,0,1,3.388-.088,1.554,1.554,0,0,1,1.3,1.4,1.647,1.647,0,0,1-2,1.871,4.639,4.639,0,0,0-2.751.434A2.777,2.777,0,0,0,20.352,91a8.9,8.9,0,0,0,.322,4.53,30.454,30.454,0,0,0,3.176,7.326,79.674,79.674,0,0,0,12.8,16.247A72.01,72.01,0,0,0,54.3,132.27a21.237,21.237,0,0,0,6.5,2.324,11.952,11.952,0,0,0,2.918.1,2.894,2.894,0,0,0,2.675-2.876,12.448,12.448,0,0,0-.73-4.991c-.152-.464-.329-.92-.454-1.391a1.625,1.625,0,0,1,1.063-2.106,1.591,1.591,0,0,1,2.066.975,20.6,20.6,0,0,1,1.383,5.169,9.925,9.925,0,0,1-.238,4.069,6.057,6.057,0,0,1-3.917,4.186c-2.591.958-5.192,1.892-7.776,2.87q-22.458,8.491-44.909,17-5.066,1.917-10.133,3.83a5.94,5.94,0,0,0-.6.3H0v-2.35" transform="translate(0 -61.472)" fill="#1a1818"/><g transform="translate(32.294 9.98)"><path d="M224.8,115.869a1.673,1.673,0,0,1-.746,1.332,6,6,0,0,1-.859.459q-16.915,8.052-33.833,16.1a5.468,5.468,0,0,1-.9.371,1.652,1.652,0,0,1-1.958-.89,1.635,1.635,0,0,1,.654-2.127c.529-.316,1.1-.56,1.66-.826q16.435-7.829,32.871-15.654a7.281,7.281,0,0,1,.892-.395,1.714,1.714,0,0,1,2.216,1.63" transform="translate(-166.842 -92.408)" fill="#139bcb"/><path d="M125.811,48.277a52.185,52.185,0,0,1-3.455,17.864c-.895,2.306-1.883,4.575-2.829,6.86a4.238,4.238,0,0,1-.2.444,1.663,1.663,0,0,1-1.99.835,1.57,1.57,0,0,1-1.125-1.819,6.51,6.51,0,0,1,.466-1.379c1.3-3.191,2.738-6.33,3.725-9.647a46.663,46.663,0,0,0,.82-23.388,1.681,1.681,0,0,1,1.935-2.107,1.706,1.706,0,0,1,1.375,1.479c.233,1.181.513,2.36.641,3.554.26,2.429.432,4.868.64,7.3" transform="translate(-116.186 -35.906)" fill="#139bcb"/><path d="M190.209,197.962a56.73,56.73,0,0,1,19.372,3.321,6.157,6.157,0,0,1,.729.276,1.685,1.685,0,0,1,.806,2.167,1.663,1.663,0,0,1-2.015.94c-1.493-.453-2.96-1-4.461-1.414a51.782,51.782,0,0,0-15.651-1.827,71.128,71.128,0,0,0-9.4,1.116c-.9.149-1.794.314-2.692.466a3.607,3.607,0,0,1-.487.039,1.669,1.669,0,0,1-.393-3.315c1.087-.2,2.176-.4,3.269-.568,2.09-.322,4.177-.681,6.278-.911,1.779-.195,3.576-.228,4.645-.29" transform="translate(-158.327 -152.918)" fill="#139bcb"/><path d="M228.027,65.923c1.271,0,2.542-.012,3.812,0,1.477.017,2.072.6,2.084,2.088q.033,3.812,0,7.624a1.806,1.806,0,0,1-2.042,2.057q-3.861.03-7.722,0a1.81,1.81,0,0,1-2.035-2.065q-.033-3.86,0-7.721c.014-1.358.638-1.959,1.992-1.98,1.3-.021,2.607,0,3.91,0m2.413,3.441h-4.845v4.85h4.845Z" transform="translate(-192.666 -57.575)" fill="#139bcb"/><path d="M164.328,115.9a1.792,1.792,0,0,1-.759,1.461q-2.145,1.927-4.283,3.86-5.7,5.131-11.411,10.259a8.746,8.746,0,0,1-.973.814,1.627,1.627,0,0,1-2.134-.25,1.7,1.7,0,0,1-.041-2.232,6.211,6.211,0,0,1,.631-.611q7.807-7.032,15.619-14.059a5.312,5.312,0,0,1,.916-.725,1.647,1.647,0,0,1,2.437,1.483" transform="translate(-136.506 -92.442)" fill="#139bcb"/><path d="M178.33,53.035a4.945,4.945,0,0,1-5.03,5.023A5.027,5.027,0,0,1,173.312,48a4.964,4.964,0,0,1,5.018,5.03m-5.036,1.618a1.634,1.634,0,0,0,1.694-1.633,1.659,1.659,0,1,0-1.694,1.633" transform="translate(-153.823 -44.642)" fill="#139bcb"/><path d="M317.442,226.317a5.011,5.011,0,1,1,.342-10.017,5.011,5.011,0,0,1-.342,10.017m.131-6.658a1.671,1.671,0,0,0-1.618,1.721,1.618,1.618,0,0,0,1.642,1.578,1.672,1.672,0,0,0,1.638-1.7,1.7,1.7,0,0,0-1.663-1.595" transform="translate(-257.991 -166.158)" fill="#139bcb"/></g><path d="M291.9,286.925c-.111-.106-.218-.218-.334-.319-.773-.678-.867-1.354-.327-2.453a8.159,8.159,0,0,0,.074-7.431,5.61,5.61,0,0,0-.4-.638c-.312,1.1-.555,2.213-.939,3.27a6.549,6.549,0,0,1-7.1,4.034,6.714,6.714,0,0,1-5.6-5.292,6.6,6.6,0,0,1,1.528-5.745,9.771,9.771,0,0,1,5.1-3.258,6.807,6.807,0,0,0,.684-.258,21.8,21.8,0,0,0-6.09-4.779,22.508,22.508,0,0,0-6.24-2.185,3.232,3.232,0,0,1-.656-.172,1.674,1.674,0,0,1-1.017-1.818,1.563,1.563,0,0,1,1.664-1.346,15.28,15.28,0,0,1,2.676.509,24.95,24.95,0,0,1,14.133,10.011,9.021,9.021,0,0,0,1.907,2.046,11.336,11.336,0,0,1,4.477,7.937,11.7,11.7,0,0,1-1.112,6.45,3.032,3.032,0,0,1-1.262,1.437Zm-4.387-11.449a16.671,16.671,0,0,0-.465-2.068,1.587,1.587,0,0,0-2.076-1.12,6.168,6.168,0,0,0-3.86,2.606,3.312,3.312,0,1,0,5.7,3.338,7.861,7.861,0,0,0,.7-2.757" transform="translate(-195.361 -186.671)" fill="#f5c151"/><path d="M0,7.382A2.281,2.281,0,0,1,1.949,6.131c1.165-.1,2.32-.325,3.479-.5.317-.048.63-.121.938-.182C6.951,4.26,7.512,3.123,8.074,1.985c.115-.233.236-.464.35-.7a1.754,1.754,0,0,1,3.239-.024c.481.961.952,1.928,1.428,2.892l.647,1.31c.731.116,1.494.239,2.258.357.837.129,1.673.263,2.511.377a1.7,1.7,0,0,1,.964,2.981c-1.113,1.144-2.22,2.294-3.4,3.52.209,1.221.441,2.565.668,3.91.049.289.078.581.117.871a1.659,1.659,0,0,1-2.487,1.661c-1.1-.558-2.194-1.147-3.29-1.72-.316-.165-.636-.324-1.016-.516-.819.421-1.655.847-2.489,1.279-.607.315-1.206.647-1.817.954a1.665,1.665,0,0,1-1.847-.09,1.693,1.693,0,0,1-.663-1.812c.287-1.535.527-3.08.76-4.462-.981-1.06-1.891-2.034-2.79-3.019C.795,9.3.4,8.827,0,8.361V7.382m12.934,7.183a15.461,15.461,0,0,0-.278-1.719,2.211,2.211,0,0,1,.8-2.522,8.13,8.13,0,0,0,.77-.749,5.057,5.057,0,0,0,.38-.538c-.677-.105-1.251-.233-1.832-.276a2.018,2.018,0,0,1-1.809-1.273c-.263-.569-.567-1.118-.921-1.811-.335.665-.618,1.172-.853,1.7A2.114,2.114,0,0,1,7.251,8.769a18.045,18.045,0,0,0-1.873.319c.617.613,1.1,1.092,1.584,1.575a1.736,1.736,0,0,1,.531,1.687c-.09.412-.163.831-.212,1.25a8.634,8.634,0,0,0-.006.916c.689-.357,1.269-.643,1.835-.954a1.8,1.8,0,0,1,1.856-.009c.6.325,1.206.621,1.968,1.011" transform="translate(0 -0.14)" fill="#f5c151"/><path d="M309,21.419a8.712,8.712,0,0,1-1.257-.163,1.633,1.633,0,0,1-1.228-1.66,1.549,1.549,0,0,1,1.353-1.542,9.751,9.751,0,0,1,2.316,0,1.588,1.588,0,0,1,1.377,1.534,1.649,1.649,0,0,1-1.227,1.665,9.113,9.113,0,0,1-1.334.17" transform="translate(-221.318 -12.985)" fill="#f5c151"/><path d="M278.859,21.4a7.975,7.975,0,0,1-1.2-.16,1.665,1.665,0,0,1-1.232-1.677,1.62,1.62,0,0,1,1.4-1.533,9.861,9.861,0,0,1,2.234,0,1.524,1.524,0,0,1,1.383,1.516,1.606,1.606,0,0,1-1.273,1.726,9.172,9.172,0,0,1-1.309.131" transform="translate(-199.589 -12.971)" fill="#f5c151"/><path d="M297.784,2.518c0,.326.024.654,0,.977a1.655,1.655,0,0,1-3.3.073,12.7,12.7,0,0,1-.008-2.051A1.625,1.625,0,0,1,296.2.008a1.588,1.588,0,0,1,1.586,1.534c.027.323,0,.651,0,.977h0" transform="translate(-212.598 -0.005)" fill="#f5c151"/><path d="M321.776,140.688a9.078,9.078,0,0,1-.006.977,1.643,1.643,0,0,1-1.621,1.523,1.687,1.687,0,0,1-1.682-1.478,10.74,10.74,0,0,1-.008-2.051,1.687,1.687,0,0,1,1.742-1.517,1.639,1.639,0,0,1,1.575,1.569c.031.323.005.652.005.977h-.006" transform="translate(-229.911 -99.744)" fill="#f5c151"/><path d="M318.507,86.553a7.423,7.423,0,0,1,.009-1.073,1.732,1.732,0,0,1,1.7-1.463,1.662,1.662,0,0,1,1.6,1.549,13.04,13.04,0,0,1,0,1.952,1.572,1.572,0,0,1-1.587,1.529,1.672,1.672,0,0,1-1.73-1.517,8.473,8.473,0,0,1-.006-.977h.009" transform="translate(-229.962 -60.664)" fill="#f5c151"/><path d="M345.087,117.425c-.326,0-.653.021-.977,0a1.69,1.69,0,0,1-1.6-1.659,1.707,1.707,0,0,1,1.613-1.655,15.276,15.276,0,0,1,1.857,0,1.659,1.659,0,0,1,1.576,1.672,1.622,1.622,0,0,1-1.592,1.643c-.292.022-.586,0-.879,0" transform="translate(-247.311 -82.371)" fill="#f5c151"/><path d="M340.01,133.758a1.627,1.627,0,0,1-2.39,1.616,8.02,8.02,0,0,1-1.906-1.911,1.492,1.492,0,0,1,.307-1.871,1.445,1.445,0,0,1,1.865-.317,14.594,14.594,0,0,1,1.937,1.883c.156.168.153.482.187.6" transform="translate(-242.246 -94.626)" fill="#f5c151"/><path d="M301.747,95.592a1.626,1.626,0,0,1-2.4,1.611,8.254,8.254,0,0,1-1.9-1.917,1.418,1.418,0,0,1,.246-1.8,1.581,1.581,0,0,1,1.865-.428,5.377,5.377,0,0,1,2.053,2.03,1.4,1.4,0,0,1,.131.5" transform="translate(-214.613 -67.086)" fill="#f5c151"/><path d="M294.509,32.566c0-.325-.026-.653,0-.975a1.63,1.63,0,0,1,1.711-1.519,1.572,1.572,0,0,1,1.6,1.518,14.825,14.825,0,0,1,0,1.95,1.559,1.559,0,0,1-1.594,1.513,1.617,1.617,0,0,1-1.713-1.51c-.031-.323,0-.65-.005-.976" transform="translate(-212.643 -21.713)" fill="#f5c151"/><path d="M337.337,97.439a1.7,1.7,0,0,1-1.682-.905,1.443,1.443,0,0,1,.148-1.729,12.407,12.407,0,0,1,1.508-1.513,1.6,1.6,0,0,1,2.134.09,1.633,1.633,0,0,1,.254,2.127,12.378,12.378,0,0,1-1.639,1.651,1.9,1.9,0,0,1-.722.279" transform="translate(-242.201 -67.097)" fill="#f5c151"/><path d="M123.658,6.665a3.273,3.273,0,0,1-3.365-3.3A3.283,3.283,0,0,1,123.6,0a3.333,3.333,0,1,1,.059,6.665" transform="translate(-86.857 0)" fill="#f5c151"/></g></svg>