<svg xmlns="http://www.w3.org/2000/svg" width="107.256" height="78.762" viewBox="0 0 107.256 78.762"><path d="M107.231,134.743a6.472,6.472,0,0,0-.415-2.133,6.7,6.7,0,0,0-4.833-4.229c-1.776-.5-3.553-.994-5.324-1.506-.357-.1-.7-.268-1.078-.415V123.88c.255-.218.517-.449.787-.666a11.339,11.339,0,0,0,3.8-5.979,17.38,17.38,0,0,0,.362-4.883,3.774,3.774,0,0,1,.443-1.9,10.579,10.579,0,0,0,1.252-5.326c-.037-1.674-.008-3.35-.008-5.027,0-.8.016-1.606,0-2.409a1.654,1.654,0,0,0-1.65-1.789,4.951,4.951,0,0,0-.522-.008c-4.712,0-9.427-.016-14.139.013a11.745,11.745,0,0,0-2.587.294A9.457,9.457,0,0,0,77.777,99.7a9.231,9.231,0,0,0-1.38,9.9,7.643,7.643,0,0,1,.845,3.907,7.568,7.568,0,0,0,.031.942A11.711,11.711,0,0,0,80,121.642c.653.813,1.4,1.551,2.217,2.443v2.249a2.625,2.625,0,0,1-.485.294c-1.16.367-2.317.75-3.495,1.055a1.747,1.747,0,0,1-.855-.058,18.408,18.408,0,0,1,4.2,2.443l1.537-.519c1.469,1.443,2.807,2.763,4.206,4.14v13.3c0,.349-.005.7.029,1.047a1.546,1.546,0,0,0,3.046.262,4.132,4.132,0,0,0,.084-1.036q.008-6.336,0-12.672v-.918L94.6,129.6c2.165.614,4.445,1.241,6.711,1.907a3.623,3.623,0,0,1,2.784,3.285,8.665,8.665,0,0,1,.024.942q0,5.707,0,11.416c0,.278-.016.561.008.837a1.56,1.56,0,0,0,3.12-.05c.01-.1.005-.21.005-.315,0-4.292.018-8.587-.021-12.88m-18.413-4.363c.045.016-.073.008-.134-.052-1.078-1.081-2.149-2.167-3.293-3.327.034-.509.068-.987.108-1.553a12.028,12.028,0,0,0,6.829.034c.031.548.058.992.076,1.314l-3.587,3.584m2.91-8.123a7.9,7.9,0,0,1-8.669-1.96,8.7,8.7,0,0,1-2.613-5.882c-.055-.905-.047-1.816-.021-2.721a4.117,4.117,0,0,0-.47-2.01c-.173-.344-.346-.685-.525-1.026a6.6,6.6,0,0,1,4.012-9.183,9.584,9.584,0,0,1,2.676-.375c4.048-.037,8.1-.018,12.148-.013.239,0,.475.047.813.084v1.055c0,1.464-.016,2.931.005,4.4a9.359,9.359,0,0,1-1.144,4.817,4.5,4.5,0,0,0-.551,2.3,28.463,28.463,0,0,1-.173,3.757,7.9,7.9,0,0,1-5.489,6.759m-61.371-6.5c-.131-2.332-.22-4.67-.4-7a13.772,13.772,0,0,0-4-8.86A12.381,12.381,0,0,0,14.21,96.179c-6.5,1.293-10.335,6.8-10.833,12.759-.207,2.466-.278,4.943-.415,7.417a16.229,16.229,0,0,1-1.076,5.5A1.887,1.887,0,0,0,2.217,124a17.96,17.96,0,0,0,2.2,2.222c1,.779,2.13,1.388,3.246,2.1-.265.147-.53.3-.805.441-1.086.554-2.186,1.084-3.264,1.653A6.4,6.4,0,0,0,.2,134.7a1.549,1.549,0,0,1-.2.341v13.407c.108.131.21.268.325.4a1.494,1.494,0,0,0,1.768.538,1.547,1.547,0,0,0,1.042-1.54c0-.244,0-.488,0-.735V136.742a3.748,3.748,0,0,1,2.256-3.689c1.225-.585,2.432-1.207,3.647-1.813l1.228-.611c.9.79,1.669,1.556,2.532,2.2a6.245,6.245,0,0,0,4.822,1.22,7.042,7.042,0,0,0,3.852-1.942c.533-.5,1.063-1,1.6-1.5l1.656.845a5.337,5.337,0,0,1,2.228-2.464c-.383-.2-.8-.425-1.322-.7.433-.231.729-.394,1.034-.551a13.18,13.18,0,0,0,4.421-3.61,2.12,2.12,0,0,0,.4-2.241,18.835,18.835,0,0,1-1.141-6.132M10.02,125.683a11.421,11.421,0,0,1-4.927-3.1c.31-1.254.59-2.388.9-3.631a12.394,12.394,0,0,0,4.03,4.922ZM19,130.064a3.515,3.515,0,0,1-4.736-.1c-.436-.443-.9-.861-1.22-1.168.089-1.165.163-2.162.249-3.28a12.552,12.552,0,0,0,6.73-.029c.118,1.089.226,2.112.354,3.306-.362.336-.874.8-1.377,1.275m-.357-7.554a8.1,8.1,0,0,1-8.249-2.563,8.445,8.445,0,0,1-2.136-4.993c-.189-1.734-.252-1.726-1.781-2.369-.147-3.65.291-7.144,2.847-10.049a9.5,9.5,0,0,1,7.556-3.385,10.072,10.072,0,0,1,9.228,6.824,19.091,19.091,0,0,1,.824,6.441c-.173-.22-.3-.378-.422-.538a14.131,14.131,0,0,0-5.686-4.306,20.95,20.95,0,0,0-7.094-1.579,1.987,1.987,0,0,0-1.621.582c-.926.947-1.839,1.91-2.747,2.878a1.555,1.555,0,0,0-.3,1.663,1.446,1.446,0,0,0,1.265.963,1.755,1.755,0,0,0,1.477-.622c.729-.7,1.48-1.377,2.314-2.154,4.077-.11,9.343,2.33,10.946,6.42-.792,3.532-2.834,5.943-6.42,6.785m4.723,3.08v-1.669a12.222,12.222,0,0,0,4-4.972c.341,1.328.627,2.445.91,3.558a9.558,9.558,0,0,1-4.914,3.083" transform="translate(0 -70.733)" fill="#1a1818"/><path d="M149.783,64.892a7.273,7.273,0,0,0-.952-3.6c-.378-.659-.813-1.283-1.241-1.955a18.408,18.408,0,0,0-4.2-2.443l0,0c-.087-.024-.171-.05-.249-.076-1.317-.443-2.624-.929-3.933-1.4-1.5-.546-3-1.1-4.361-1.6-.745-1.9-2.385-2.886-3.453-4.326V44.521c.727-.795,1.322-1.433,1.9-2.086a17.549,17.549,0,0,0,4.542-9.9c.2-1.831.178-3.689.207-5.536a5.2,5.2,0,0,1,.375-1.923,17.371,17.371,0,0,0,1.307-6.517q.028-8.273.005-16.548c0-1.448-.577-2-2.052-2Q126.1,0,114.533.015a14.118,14.118,0,0,0-2.8.257,15.049,15.049,0,0,0-11.78,11.544,27.907,27.907,0,0,0-.346,7.194,18.118,18.118,0,0,0,1.37,6.3,3.862,3.862,0,0,1,.254,1.417,38.126,38.126,0,0,0,.378,6.258,18.653,18.653,0,0,0,4.182,8.978c.672.8,1.422,1.524,2.12,2.27v5.321c-.75.8-1.454,1.577-2.183,2.325a3.467,3.467,0,0,0-1.168,1.9c-.866.317-1.687.6-2.5.918-3.009,1.175-6.147,2.02-9.091,3.555a5.337,5.337,0,0,0-2.228,2.464,9.365,9.365,0,0,0-1.254,4.654c.01,3.734,0,7.47.008,11.206a3.8,3.8,0,0,0,.081.931,1.547,1.547,0,0,0,3.062-.26c.037-.38.029-.766.029-1.149,0-3.455.024-6.913-.005-10.369a5.363,5.363,0,0,1,4-5.68c.632-.189,1.241-.459,1.863-.685,2.545-.926,5.093-1.847,7.68-2.786.2.275.394.519.564.774,1.2,1.8,2.382,3.608,3.608,5.389a3.263,3.263,0,0,0,5.219.59c.617-.567,1.186-1.183,1.787-1.768a6.925,6.925,0,0,1,.653-.48v1.3q0,6.915.008,13.824a6.069,6.069,0,0,0,.131,1.346,1.5,1.5,0,0,0,1.4,1.194,1.485,1.485,0,0,0,1.522-1.036,4.667,4.667,0,0,0,.173-1.335q.016-7.068.008-14.139V60.948c.328.3.535.47.727.659.624.611,1.233,1.236,1.863,1.842a3.061,3.061,0,0,0,1.855.868A3.319,3.319,0,0,0,129,62.685c1.22-1.826,2.43-3.66,3.65-5.486.147-.223.331-.42.483-.611,3.308,1.2,6.549,2.372,9.784,3.558a6.523,6.523,0,0,1,1.317.627,5.178,5.178,0,0,1,2.411,4.607c.016,3.665,0,7.331.005,11a7.69,7.69,0,0,0,.034,1.044,1.564,1.564,0,0,0,1.309,1.314,1.518,1.518,0,0,0,1.621-.889,2.342,2.342,0,0,0,.173-.91c.01-4.014.018-8.029-.005-12.043M104.936,33.465a18.891,18.891,0,0,1-.451-4.25c-.005-.488-.024-.979,0-1.467a8.822,8.822,0,0,0-.745-4.164,12.673,12.673,0,0,1-.939-5.208c.005-1.328.008-2.653.031-3.978a11.694,11.694,0,0,1,8.9-10.839,13.911,13.911,0,0,1,3.1-.4c7.016-.034,14.029-.018,21.045-.016.173,0,.346.016.69.037v1.1c0,4.466.016,8.934-.005,13.4a16.81,16.81,0,0,1-1.328,6.819,5.122,5.122,0,0,0-.336,1.823c-.079,1.708-.039,3.419-.147,5.124a15.113,15.113,0,0,1-29.821,2.01m8.115,27.559c-1.514-2.264-3.13-4.683-4.828-7.218.575-.535,1.078-1,1.658-1.537,2.382,1.624,4.786,3.261,7.1,4.846-1.312,1.3-2.6,2.584-3.936,3.909m6.609-5.93c-2.852-1.949-5.612-3.836-8.4-5.746V46.46a18.361,18.361,0,0,0,16.836.037v2.826q-4.144,2.838-8.433,5.772m6.546,6.032c-1.351-1.354-2.629-2.632-3.951-3.954,2.332-1.6,4.744-3.243,7.16-4.9.543.559,1.039,1.07,1.6,1.642q-2.385,3.573-4.807,7.207" transform="translate(-66.01 0)" fill="#107ba1"/><path d="M371.241,256.362c0-1.637-.017-3.275.007-4.912a1.5,1.5,0,0,1,1.352-1.576,1.548,1.548,0,0,1,1.763,1.382,4.7,4.7,0,0,1,.018.626q0,4.546,0,9.092a4.606,4.606,0,0,1-.026.73,1.594,1.594,0,0,1-1.61,1.35,1.515,1.515,0,0,1-1.482-1.467c-.038-1.741-.012-3.483-.012-5.225h-.009" transform="translate(-273.834 -184.307)" fill="#1a1818"/><path d="M25.554,263.24c0-1.29-.025-2.58.008-3.87a1.562,1.562,0,0,1,3.114-.215,6.862,6.862,0,0,1,.018.731q0,3.4,0,6.8c0,.244.008.49-.015.732a1.567,1.567,0,0,1-1.495,1.466,1.594,1.594,0,0,1-1.607-1.356,4.734,4.734,0,0,1-.025-.73q0-1.778,0-3.556Z" transform="translate(-18.842 -190.135)" fill="#1a1818"/><path d="M127.848,267.593c0-.94-.015-1.88.008-2.819a3.859,3.859,0,0,1,.17-1.123,1.541,1.541,0,0,1,2.912.084,4.539,4.539,0,0,1,.143,1.132q.021,2.663,0,5.326a5.182,5.182,0,0,1-.132,1.136,1.535,1.535,0,0,1-1.321,1.158,1.509,1.509,0,0,1-1.532-.862,3.583,3.583,0,0,1-.236-1.212c-.033-.939-.01-1.879-.01-2.819" transform="translate(-94.299 -193.743)" fill="#1a1818"/><path d="M268.933,267.471c0-1.044-.022-2.088.006-3.131a1.525,1.525,0,0,1,1.467-1.683,1.544,1.544,0,0,1,1.67,1.607c.038,2.191.029,4.383,0,6.574a1.612,1.612,0,0,1-1.232,1.619,1.48,1.48,0,0,1-1.625-.67,2.412,2.412,0,0,1-.279-1.081c-.035-1.077-.013-2.156-.013-3.235Z" transform="translate(-198.366 -193.743)" fill="#1a1818"/><path d="M156.5,58.07c0,1.036.014,1.972-.007,2.908a5.3,5.3,0,0,1-.148,1.237,1.407,1.407,0,0,1-1.454,1.11,1.335,1.335,0,0,1-1.471-1.076,11.7,11.7,0,0,1,.093-5.179,2.872,2.872,0,0,1,2.4-2.1,44.419,44.419,0,0,1,10.525-.565,46.679,46.679,0,0,1,5.581.765,14.728,14.728,0,0,1,7.056,3.437,3.614,3.614,0,0,1,.63.687,1.459,1.459,0,0,1-.208,1.912,1.613,1.613,0,0,1-1.836.268,2.357,2.357,0,0,1-.516-.353,13.161,13.161,0,0,0-6.961-3.092,39.477,39.477,0,0,0-11.042-.237c-.828.092-1.658.174-2.647.278" transform="translate(-112.991 -40.044)" fill="#107ba1"/><path d="M315.742,127.919a38.423,38.423,0,0,1,7.951,1.04,14.976,14.976,0,0,1,2.34.874,1.54,1.54,0,0,1-.5,2.917,2.755,2.755,0,0,1-1.109-.2,24.787,24.787,0,0,0-7.57-1.349,14.924,14.924,0,0,1-1.868-.158,1.4,1.4,0,0,1-1.276-1.521,1.471,1.471,0,0,1,1.3-1.522,4.749,4.749,0,0,1,.729-.079" transform="translate(-231.402 -94.357)" fill="#1a1818"/></svg>