<svg xmlns="http://www.w3.org/2000/svg" width="142.034" height="142.292" viewBox="0 0 142.034 142.292">
  <g id="mission-icon" transform="translate(0 0)">
    <path id="Path_18287" data-name="Path 18287" d="M77.246,42.928c-1.2.445-2.443.774-3.65,1.19a51.072,51.072,0,0,0-32.728,35.9,68.386,68.386,0,0,0-1.429,8.795c-.111,1.03.313,1.569,1.31,1.635H32.193a1.587,1.587,0,0,0,.2-.008,1.388,1.388,0,0,0,1.479-1.429c.2-1.528.35-3.061.56-4.585A57.052,57.052,0,0,1,69.123,39.871c2.08-.857,4.239-1.528,6.389-2.2a2.734,2.734,0,0,1,3.543,1.808,2.766,2.766,0,0,1-1.808,3.448" transform="translate(-18.932 -22.067)" fill="#fff" opacity="0.3"/>
    <path id="Path_18288" data-name="Path 18288" d="M247.977,179.494h-1.059c-.77,0-1.545-.008-2.315,0-1.574.025-2.027.416-2.126,1.973a50.031,50.031,0,0,1-1.553,9.231A57.091,57.091,0,0,1,200.5,231.653c-.4.107-.791.21-1.195.28a2.576,2.576,0,0,1-3.044-1.714,2.817,2.817,0,0,1,1.438-3.51,8.253,8.253,0,0,1,1.174-.367,51.186,51.186,0,0,0,37.461-40.72q.321-1.891.564-3.8a12.339,12.339,0,0,0,.012-1.565,1.385,1.385,0,0,0-1.1-.816Z" transform="translate(-115.324 -105.522)" fill="#fff" opacity="0.3"/>
    <path id="Path_18289" data-name="Path 18289" d="M142.028,71.4a2.593,2.593,0,0,1-2.727,2.554c-2.06.041-4.119.025-6.179.021l-.47,0-12.169-.054a2.311,2.311,0,0,0-.243-.025c-.091,0-.181,0-.276,0-.8,0-1.6,0-2.4,0H115.03c-1.335,0-2.669,0-4,.008-1.232.008-1.644.4-1.78,1.627a36.546,36.546,0,0,1-4.42,13.981C98.808,100.191,89.8,106.8,77.7,109.1c-.9.173-1.825.26-2.723.457-.993.222-1.162.465-1.215,1.479-.016.358,0,.717,0,1.079V138.32a11.141,11.141,0,0,1-.025,1.388,2.721,2.721,0,0,1-5.433.021,10.228,10.228,0,0,1-.021-1.232c0-1.574,0-3.147,0-4.721v-.725q0-1.594,0-3.188c0-.1,0-.194,0-.284l-.016-8.049a.072.072,0,0,1,.021-.016V116.26c0-1.594-.033-3.188.012-4.783s-.342-1.771-1.845-2.068a56.182,56.182,0,0,1-6-1.248C45.907,103.573,36.861,93.851,33.4,78.984c-.264-1.145-.408-2.319-.593-3.481-.173-1.1-.589-1.508-1.71-1.582-.358-.025-.721,0-1.079,0H3.8c-.408,0-.82.016-1.232-.012A2.629,2.629,0,0,1,.005,71.343,2.7,2.7,0,0,1,2.362,68.41a8.756,8.756,0,0,1,1.232-.029c1.858,0,3.72,0,5.578,0h3.366c.243,0,.486.008.725,0h8.556c.062,0,.124.008.185.008,2.982.029,5.965.025,8.943,0,1.273-.012,1.7-.449,1.845-1.755a34.471,34.471,0,0,1,2.435-9.652c5.2-12.4,14.319-20.259,27.4-23.46a34.778,34.778,0,0,1,3.629-.622c1.792-.243,2.023-.482,2.023-2.369q.006-13.254,0-26.516c0-.461-.029-.927.016-1.384a2.728,2.728,0,0,1,5.454.025c.033.358.012.721.012,1.079V34.421c0,.255.008.515,0,.77a2.784,2.784,0,0,1-3,2.962,34.143,34.143,0,0,0-10.282,1.681A32.076,32.076,0,0,0,41.4,56.913a32.795,32.795,0,0,0,7.922,39.122,31.942,31.942,0,0,0,33.235,5.829c11.056-4.47,18.063-12.519,20.745-24.185a39.138,39.138,0,0,0,.7-6.1c.144-2.159,1.075-3.164,3.287-3.172,5.553-.016,11.1,0,16.65,0q7.174,0,14.339,0a9.428,9.428,0,0,1,1.232.025,2.788,2.788,0,0,1,2.517,2.974" transform="translate(0 0)" fill="#fff"/>
    <path id="Path_18290" data-name="Path 18290" d="M91.69,245.061c-.033-1.351-.3-1.582-1.8-1.763a64.384,64.384,0,0,1-12.609-2.661A56.6,56.6,0,0,1,40.012,200.4a5.639,5.639,0,0,1-.189-1.364,2.512,2.512,0,0,1,1.99-2.575,2.579,2.579,0,0,1,3.069,1.438,8,8,0,0,1,.474,1.454,50.819,50.819,0,0,0,38.174,37.251c2.3.507,4.634.828,6.991,1.244.383-.284.741-.544,1.153-.84Z" transform="translate(-23.418 -115.483)" fill="#fff" opacity="0.3"/>
    <path id="Path_18291" data-name="Path 18291" d="M189.836,62.287V56.456c0-2.157.017-4.315-.006-6.472a4.805,4.805,0,0,1,1.548-3.686c6.031-5.954,12.006-11.963,18-17.952a8.652,8.652,0,0,1,.9-.844,2.575,2.575,0,0,1,2.874-.4,2.608,2.608,0,0,1,1.6,2.425c.016,1.951.014,3.9.018,5.855,0,1.335-.016,2.671,0,4.006.026,1.649.476,2.115,2.112,2.127,2.876.021,5.752,0,8.629.009a11.3,11.3,0,0,1,1.537.062,2.571,2.571,0,0,1,2.187,1.9,2.445,2.445,0,0,1-.653,2.678q-9.559,9.505-19.129,19a3.935,3.935,0,0,1-3.022,1.214c-3.595-.035-7.191.02-10.786-.028a4.307,4.307,0,0,0-3.4,1.395c-6.983,7.107-14.028,14.155-21.053,21.22-.326.327-.637.675-.993.967a2.73,2.73,0,0,1-3.9-3.8,12.819,12.819,0,0,1,.955-1Q178.332,73.961,189.395,62.8c.107-.108.2-.23.442-.511m16.1-1.555c3.663-3.651,7.258-7.234,10.852-10.818a7.787,7.787,0,0,0,.849-.889,1.327,1.327,0,0,0-.809-2.147,4.913,4.913,0,0,0-1.073-.047c-1.282,0-2.566.028-3.847-.011a2.67,2.67,0,0,1-2.746-2.713c-.041-1.179-.007-2.36-.011-3.539a6.018,6.018,0,0,0-.036-1.075,1.361,1.361,0,0,0-2.3-.893,4.072,4.072,0,0,0-.449.42q-5.227,5.329-10.456,10.654a2.165,2.165,0,0,0-.662,1.647c.023,2.565,0,5.13.014,7.695.01,1.471.322,1.78,1.85,1.793,2.668.022,5.335.009,8,0a7.736,7.736,0,0,0,.819-.078" transform="translate(-97.423 -15.772)" fill="#f5c151"/>
    <path id="Path_18292" data-name="Path 18292" d="M139.683,163a22.751,22.751,0,0,1-4.757-45,27.6,27.6,0,0,1,4.107-.547c1.9-.1,3.13.938,3.206,2.535.081,1.713-1.084,2.874-3.023,2.925a16.616,16.616,0,0,0-9.1,2.913,16.945,16.945,0,0,0-7.386,11.431,17.206,17.206,0,0,0,11.278,19.28c9.063,3.119,19.6-.994,22.392-12.255a37.272,37.272,0,0,0,.643-4.409,2.724,2.724,0,0,1,2.936-2.526,2.655,2.655,0,0,1,2.6,2.851,22.087,22.087,0,0,1-4.116,13.142,22.814,22.814,0,0,1-15.853,9.622,3.2,3.2,0,0,1-.461.037c-.822,0-1.644,0-2.465,0" transform="translate(-68.754 -69.065)" fill="#f5c151"/>
  </g>
</svg>
