<svg id="vision-icon" xmlns="http://www.w3.org/2000/svg" width="126.947" height="141.386" viewBox="0 0 126.947 141.386">
  <path id="Path_18275" data-name="Path 18275" d="M63.478,164.217a63.067,63.067,0,0,1-22.4-4.421,81.332,81.332,0,0,1-20.118-11.527A105.188,105.188,0,0,1,7.7,136.025,92.072,92.072,0,0,1,.806,127.6a3.211,3.211,0,0,1,.007-4.263,102.725,102.725,0,0,1,11.315-12.977,93.119,93.119,0,0,1,19.14-14.572,69.778,69.778,0,0,1,17.778-7.209,61.459,61.459,0,0,1,9.477-1.56,59.921,59.921,0,0,1,8.126-.143A56.418,56.418,0,0,1,76.7,88.3a75.794,75.794,0,0,1,28.286,13.619,104.837,104.837,0,0,1,14.158,12.889,90.455,90.455,0,0,1,6.984,8.529,3.19,3.19,0,0,1,0,4.264,102.634,102.634,0,0,1-11.217,12.882,92.9,92.9,0,0,1-19.354,14.739A69.826,69.826,0,0,1,77.9,162.362a49.258,49.258,0,0,1-9.478,1.526c-1.649.079-3.3.218-4.944.33m57.27-38.692c-.263-.394-.445-.709-.668-.993a101.183,101.183,0,0,0-14.735-15.251,78.819,78.819,0,0,0-19.7-12.239,58.685,58.685,0,0,0-19.968-4.669,50.06,50.06,0,0,0-11.79.854A61.773,61.773,0,0,0,38.543,98.3a84.63,84.63,0,0,0-22.955,16.467c-2.226,2.19-4.287,4.552-6.37,6.883-1.064,1.191-2.011,2.487-3.026,3.755a10.2,10.2,0,0,0,.671,1c2.476,2.842,4.887,5.744,7.465,8.49a82.723,82.723,0,0,0,9.64,8.653,74.454,74.454,0,0,0,22.343,12.211,58.021,58.021,0,0,0,14.809,2.8,49.584,49.584,0,0,0,11.928-.844,61.4,61.4,0,0,0,15.473-5.129,85.041,85.041,0,0,0,22.935-16.51c2.191-2.16,4.222-4.487,6.271-6.786,1.063-1.192,2.006-2.49,3.02-3.761" transform="translate(0 -54.779)" fill="#fff"/>
  <g id="Group_900" data-name="Group 900" transform="translate(8.275)" opacity="0.5">
    <path id="Path_18274" data-name="Path 18274" d="M168.12,0a7.889,7.889,0,0,1,1.2.882,3.123,3.123,0,0,1,.739,2.286c-.024,4.545-.011,9.091-.011,13.636,0,1.423.043,2.848-.011,4.27a2.736,2.736,0,0,1-4.3,2.2,2.677,2.677,0,0,1-1.186-1.924,6.623,6.623,0,0,1-.019-1.1c0-5.556.04-11.112-.025-16.667A3.46,3.46,0,0,1,166.464,0Z" transform="translate(-112.097)" fill="#fff"/>
    <path id="Path_18276" data-name="Path 18276" d="M170.085,330.79c0,2.986-.04,5.972.016,8.957a2.836,2.836,0,0,1-2.854,2.873,2.785,2.785,0,0,1-2.668-2.483c-.013-.137-.008-.276-.008-.413q0-8.958,0-17.915a2.7,2.7,0,0,1,1.457-2.607,2.742,2.742,0,0,1,4.051,2.217c.041.548.01,1.1.011,1.653q0,3.858,0,7.717" transform="translate(-112.133 -201.237)" fill="#fff"/>
    <path id="Path_18277" data-name="Path 18277" d="M39.767,71.387A2.81,2.81,0,0,1,35.779,74a5.537,5.537,0,0,1-1.19-.916q-5.467-5.438-10.908-10.9a5.332,5.332,0,0,1-.784-.949,2.751,2.751,0,0,1,3.759-3.805,5.061,5.061,0,0,1,.952.777q5.463,5.443,10.916,10.9a3.71,3.71,0,0,1,1.243,2.29" transform="translate(-22.43 -35.958)" fill="#fff"/>
    <path id="Path_18278" data-name="Path 18278" d="M292.03,60.1c-.142.311-.374.9-.675,1.448a3.48,3.48,0,0,1-.643.712q-5.4,5.405-10.816,10.8a5.3,5.3,0,0,1-1.3.985,2.756,2.756,0,0,1-3.611-3.678,4.494,4.494,0,0,1,.812-1.1q5.536-5.564,11.1-11.1a5.31,5.31,0,0,1,1.081-.836c1.708-.982,3.923.35,4.057,2.766" transform="translate(-181.623 -35.977)" fill="#fff"/>
    <path id="Path_18279" data-name="Path 18279" d="M25.4,304.118a2.819,2.819,0,0,1-2.657-3.965,4.284,4.284,0,0,1,.718-1q5.682-5.71,11.394-11.391a2.653,2.653,0,0,1,2.993-.792,2.715,2.715,0,0,1,1.5,4.01,4.855,4.855,0,0,1-.77.96q-5.494,5.509-11,11.008a3.663,3.663,0,0,1-2.179,1.168" transform="translate(-22.445 -180.991)" fill="#fff"/>
    <path id="Path_18280" data-name="Path 18280" d="M292.023,301.108c-.09,2.274-2.3,3.634-4.009,2.675a5.652,5.652,0,0,1-1.187-.921q-5.467-5.439-10.908-10.9a5.213,5.213,0,0,1-.782-.951,2.752,2.752,0,0,1,3.786-3.78,5.145,5.145,0,0,1,.95.781q5.463,5.443,10.916,10.9a3.836,3.836,0,0,1,1.234,2.205" transform="translate(-181.626 -180.98)" fill="#fff"/>
  </g>
  <path id="Path_18281" data-name="Path 18281" d="M104.431,148.95c.138-1.432.223-2.808.418-4.168a2.971,2.971,0,0,1,1.585-2.288,2.727,2.727,0,0,1,3.941,2.372,15.672,15.672,0,0,1-.107,1.79A17.283,17.283,0,0,0,111.88,157.1a19.252,19.252,0,0,0,30.361,6.283,18.4,18.4,0,0,0,6.085-10.695,19.386,19.386,0,0,0-15.25-22.618,19.04,19.04,0,0,0-9.9.67,8.531,8.531,0,0,1-1.6.34,2.585,2.585,0,0,1-2.838-2.248,2.722,2.722,0,0,1,1.684-2.986,23.686,23.686,0,0,1,3.261-1.058,24.12,24.12,0,0,1,7.939-.556,24.958,24.958,0,0,1,21.835,18.6,24.977,24.977,0,0,1-7.147,24.409,23.425,23.425,0,0,1-12.636,6.285,24.348,24.348,0,0,1-22.324-7.409A23.473,23.473,0,0,1,104.8,152.6c-.164-1.225-.248-2.461-.364-3.647" transform="translate(-65.906 -78.331)" fill="#f5c151"/>
  <path id="Path_18282" data-name="Path 18282" d="M153.2,161.689a11.054,11.054,0,1,1-.245,22.107,11.054,11.054,0,0,1,.245-22.107M147.6,172.636a5.53,5.53,0,0,0,5.463,5.591,5.5,5.5,0,0,0,.185-10.994,5.509,5.509,0,0,0-5.648,5.4" transform="translate(-89.647 -102.04)" fill="#f5c151"/>
  <path id="Path_18283" data-name="Path 18283" d="M125.18,149.478a2.755,2.755,0,1,1-2.8-2.749,2.731,2.731,0,0,1,2.8,2.749" transform="translate(-75.524 -92.6)" fill="#f5c151"/>
</svg>
